Coordinates
version=1
nRows=26
nColumns=24
inDegrees=yes

Units are S.I. units (second, meters, Newtons, ...)
Angles are in degrees.

endheader
time	pelvis_tilt	pelvis_list	pelvis_rotation	pelvis_tx	pelvis_ty	pelvis_tz	hip_flexion_r	hip_adduction_r	hip_rotation_r	knee_angle_r	ankle_angle_r	subtalar_angle_r	mtp_angle_r	hip_flexion_l	hip_adduction_l	hip_rotation_l	knee_angle_l	ankle_angle_l	subtalar_angle_l	mtp_angle_l	lumbar_extension	lumbar_bending	lumbar_rotation
      0.79566667	     -4.69827547	     -2.09884436	      1.49196388	     -0.47813212	      0.99923749	      0.34633245	     14.38254759	      6.66337157	     -6.15677871	    -12.30664735	      2.70714629	     -6.75793137	      7.06696811	     23.66320556	     -2.74785016	      2.33137008	    -66.59958144	     -5.99190036	     -8.02697287	      4.29236675	      1.89295981	      4.66293068	      3.81056946
      0.79983333	     -4.62151682	     -2.02776966	      1.36774976	     -0.47316652	      0.99994654	      0.34659181	     13.84155440	      6.62728036	     -6.12556326	    -12.05323070	      2.87516927	     -6.38051352	      7.09290762	     24.10402752	     -2.64157156	      2.34967644	    -66.30478253	     -5.37216543	     -8.21914546	      4.10172598	      1.72320014	      4.58148410	      4.10214614
      0.80400000	     -4.61125278	     -1.95269283	      1.22495289	     -0.46823038	      1.00052659	      0.34686581	     13.38772500	      6.58949890	     -6.05787664	    -11.83051892	      3.00476872	     -6.21386084	      7.10549954	     24.60435736	     -2.53576550	      2.34343016	    -65.96451294	     -4.76317363	     -8.47937630	      4.02203504	      1.65875425	      4.51468065	      4.18423121
      0.80816667	     -4.56049487	     -1.87055634	      1.08868693	     -0.46327640	      1.00113560	      0.34712983	     12.87681151	      6.53893635	     -6.01764186	    -11.57942231	      3.17597419	     -5.87020114	      7.13252269	     25.04098826	     -2.42292734	      2.34474505	    -65.56516288	     -4.19832526	     -8.61955545	      3.81352313	      1.53592455	      4.42267754	      4.44875502
      0.81233333	     -4.59828824	     -1.80345524	      0.96627280	     -0.45837237	      1.00155947	      0.34737937	     12.46846428	      6.50524647	     -5.93743611	    -11.33576875	      3.30268056	     -5.75736055	      7.14013710	     25.57560572	     -2.31631483	      2.36588844	    -65.13422254	     -3.68391791	     -8.82385572	      3.78271537	      1.53751123	      4.35367348	      4.48733160
      0.81650000	     -4.56188239	     -1.70935276	      0.79233288	     -0.45347081	      1.00204530	      0.34763453	     12.01993449	      6.42950564	     -5.94449933	    -11.17348860	      3.44532168	     -5.30276730	      7.18780723	     25.99690917	     -2.20799815	      2.31277342	    -64.64599519	     -3.10844779	     -8.97080835	      3.35208844	      1.41324420	      4.26462920	      4.84776814
      0.82066667	     -4.55220760	     -1.63941863	      0.61725759	     -0.44858875	      1.00246878	      0.34795588	     11.56295777	      6.40294225	     -5.78863895	    -10.93408557	      3.61425290	     -5.15724842	      7.20126826	     26.44080794	     -2.13805504	      2.26070618	    -64.11687295	     -2.61141754	     -9.08392661	      3.28074760	      1.33113928	      4.20058658	      4.88699059
      0.82483333	     -4.49304564	     -1.57331261	      0.46832865	     -0.44366365	      1.00292064	      0.34822175	     11.04743434	      6.36545877	     -5.72750133	    -10.68491163	      3.76919082	     -4.88866248	      7.22559561	     26.81103510	     -2.06368371	      2.23181368	    -63.53231672	     -2.14179255	     -9.11452544	      3.08693079	      1.20273162	      4.13358604	      5.12335690
      0.82900000	     -4.52303066	     -1.50510282	      0.27922008	     -0.43880970	      1.00319064	      0.34851750	     10.65865907	      6.32905948	     -5.60933333	    -10.49020472	      3.90573169	     -4.69944287	      7.24074189	     27.26783625	     -2.00049226	      2.16466104	    -62.91496148	     -1.69069312	     -9.21533476	      2.98842321	      1.17289062	      4.08583478	      5.22362400
      0.83316667	     -4.48754033	     -1.44236892	      0.12906539	     -0.43392961	      1.00352100	      0.34873544	     10.19141713	      6.28146115	     -5.59220547	    -10.27625948	      4.03197519	     -4.34316670	      7.28274378	     27.63784667	     -1.92066470	      2.14482919	    -62.24800492	     -1.27104917	     -9.27552103	      2.59356928	      1.05688430	      4.02768271	      5.51131663
      0.83733333	     -4.50168721	     -1.35831576	     -0.06102413	     -0.42904914	      1.00375535	      0.34901367	      9.78439363	      6.21578765	     -5.52251432	    -10.07559045	      4.16433732	     -3.96142194	      7.39109737	     28.03746391	     -1.85042371	      2.05652180	    -61.52570213	     -0.93073099	     -9.31242153	      1.56861649	      1.01580704	      3.93331399	      5.71089281
      0.84150000	     -4.47084026	     -1.31880864	     -0.23390512	     -0.42418763	      1.00399212	      0.34929317	      9.31264442	      6.20668179	     -5.38993436	     -9.84563326	      4.34719713	     -3.87096219	      7.40343400	     28.38293021	     -1.82545450	      1.99625147	    -60.78005771	     -0.54898517	     -9.31770341	      1.51942195	      0.90812206	      3.91195357	      5.73727300
      0.84566667	     -4.50394638	     -1.29110811	     -0.38249686	     -0.41933418	      1.00408994	      0.34953775	      8.90291679	      6.20472110	     -5.28286696	     -9.59138824	      4.47548062	     -3.73626773	      7.41200646	     28.79409503	     -1.79842820	      1.96865821	    -60.00522253	     -0.25196568	     -9.34131892	      1.49223909	      0.87616124	      3.88001910	      5.80454666
      0.84983333	     -4.44374470	     -1.22877944	     -0.58224464	     -0.41444125	      1.00432452	      0.34981252	      8.40682621	      6.16051912	     -5.16801929	     -9.37438080	      4.60558320	     -3.49833471	      7.42770506	     29.05315806	     -1.76763508	      1.86125530	    -59.14346657	      0.03473690	     -9.29696459	      1.42138420	      0.73728132	      3.83475859	      6.00335936
      0.85400000	     -4.41426935	     -1.18883817	     -0.73991182	     -0.40955164	      1.00444977	      0.35004642	      7.93600503	      6.13326795	     -5.11206285	     -9.13496374	      4.73924429	     -3.24374541	      7.44816521	     29.34622167	     -1.74155431	      1.80108526	    -58.26256661	      0.27189724	     -9.28503240	      1.32437035	      0.64243642	      3.78854363	      6.19063463
      0.85816667	     -4.41244348	     -1.16079619	     -0.91492115	     -0.40469938	      1.00448968	      0.35027773	      7.50487076	      6.12022272	     -4.99686717	     -8.91283047	      4.86475246	     -3.03587869	      7.46536550	     29.65352277	     -1.73259795	      1.73371156	    -57.34665526	      0.48964100	     -9.26672239	      1.25603258	      0.56420685	      3.78140955	      6.29071025
      0.86233333	     -4.38882902	     -1.13598601	     -1.07768250	     -0.39981682	      1.00453733	      0.35050127	      7.04064307	      6.10756027	     -4.90063147	     -8.67266897	      4.98830154	     -2.82810133	      7.48359202	     29.91575917	     -1.72579436	      1.67122390	    -56.38363395	      0.66963248	     -9.23542497	      1.18642547	      0.46832858	      3.76313288	      6.41029982
      0.86650000	     -4.34749673	     -1.11138429	     -1.22024666	     -0.39490864	      1.00456887	      0.35068914	      6.55303715	      6.08680048	     -4.85956119	     -8.42305314	      5.11063184	     -2.58832676	      7.51030131	     30.14113194	     -1.71314303	      1.61348522	    -55.37987285	      0.82003191	     -9.20543307	      1.08087895	      0.35704631	      3.73813604	      6.56841903
      0.87066667	     -4.34396498	     -1.09658832	     -1.38596666	     -0.39004018	      1.00450526	      0.35089708	      6.11878992	      6.08013308	     -4.74487231	     -8.19772954	      5.23131372	     -2.39444577	      7.53165969	     30.38946778	     -1.72099438	      1.54541036	    -54.33947931	      0.94501111	     -9.16716716	      1.01136883	      0.28360219	      3.73931755	      6.64587297
      0.87483333	     -4.31404937	     -1.08398490	     -1.53397713	     -0.38513761	      1.00445319	      0.35108589	      5.64290899	      6.07232368	     -4.65495727	     -7.94611030	      5.34891061	     -2.19467640	      7.55447405	     30.58741870	     -1.72783932	      1.47800692	    -53.25533472	      1.04691299	     -9.12418862	      0.93966113	      0.17678326	      3.73142814	      6.74495980
      0.87900000	     -4.28914675	     -1.06655066	     -1.67723928	     -0.38023420	      1.00435951	      0.35125567	      5.17780436	      6.05433953	     -4.58143137	     -7.70435824	      5.46718937	     -1.99721248	      7.57855710	     30.76965700	     -1.72690665	      1.41077595	    -52.12633031	      1.12263762	     -9.08988391	      0.86980795	      0.07854691	      3.72483414	      6.83860464
      0.88316667	     -4.26309592	     -1.06820206	     -1.81086183	     -0.37532026	      1.00421542	      0.35141753	      4.70863735	      6.05606255	     -4.51133156	     -7.45766447	      5.58469368	     -1.79559747	      7.60508122	     30.93611274	     -1.74540978	      1.34840680	    -50.97010515	      1.18257721	     -9.05188729	      0.79742961	     -0.01710917	      3.73197328	      6.92857253
      0.88733333	     -4.23580539	     -1.06835443	     -1.94288502	     -0.37039735	      1.00404984	      0.35156331	      4.23932952	      6.05212082	     -4.44428526	     -7.21414530	      5.69951941	     -1.60483213	      7.63252325	     31.07780534	     -1.76216667	      1.28129643	    -49.76787703	      1.22380727	     -9.01439084	      0.72766014	     -0.11333909	      3.74167042	      7.00569560
      0.89150000	     -4.21229239	     -1.08193013	     -2.06529323	     -0.36546759	      1.00383275	      0.35170694	      3.77082541	      6.06320282	     -4.37805848	     -6.96430983	      5.81733262	     -1.42324954	      7.66175750	     31.20657578	     -1.79232626	      1.21675562	    -48.53379475	      1.25172282	     -8.98062734	      0.65679381	     -0.20789866	      3.76349810	      7.08094597
      0.89566667	     -4.18572311	     -1.09304686	     -2.18268160	     -0.36052974	      1.00358086	      0.35183993	      3.30446030	      6.06904652	     -4.31846444	     -6.72678853	      5.93438824	     -1.24399845	      7.69349930	     31.30915670	     -1.81715624	      1.15185746	    -47.25880875	      1.26199752	     -8.95715394	      0.58425126	     -0.30044843	      3.77804516	      7.14633305
      0.89983333	     -4.16772555	     -1.12034733	     -2.29525582	     -0.35558510	      1.00326962	      0.35196101	      2.84594070	      6.09105706	     -4.25743213	     -6.48816676	      6.05180450	     -1.07048324	      7.72664624	     31.40505383	     -1.85890813	      1.08793009	    -45.95508294	      1.26583425	     -8.93197267	      0.51280290	     -0.38504103	      3.81263333	      7.20569342
